<?xml version="1.0" encoding="utf-8"?>
<!-- Generator: Adobe Illustrator 22.0.1, SVG Export Plug-In . SVG Version: 6.00 Build 0)  -->
<svg version="1.1" id="logo" xmlns="http://www.w3.org/2000/svg" xmlns:xlink="http://www.w3.org/1999/xlink" x="0px" y="0px"
	 viewBox="0 0 192.6 34.5" style="enable-background:new 0 0 192.6 34.5;" xml:space="preserve">
<style type="text/css">
	.st0{fill:#77787B;}
</style>
<title>mapxus_white</title>
<path class="st0" d="M46.6,28.7L39.1,5.2l0,0l-1-3l0,0l-0.5-1.6C37.5,0.3,37.2,0,36.8,0l-3.7,0.3l-1.4,0.1l-3.1,0.3
	c-0.2,0-0.4,0.1-0.6,0.3l-0.6,1.2l0,0l-0.5,0.9v0l-11,21.3L11.1,2.3l0,0V2.2c-0.1-0.3-0.4-0.5-0.7-0.4L6,2.1c-0.1,0-0.2,0.1-0.3,0.1
	C5.6,2.4,5.5,2.5,5.5,2.6l-2.6,27L1.4,2.2c0-0.1,0-0.1-0.1-0.2C1.3,2,1.2,1.9,1.1,1.9L0.2,2C0.2,2,0.1,2,0.1,2.1C0,2.1,0,2.2,0,2.2
	l1.5,29c0,0.4,0.3,0.6,0.7,0.6h1.9c0.4,0.1,0.9-0.2,1-0.6L7.7,5.4l5.6,25.8c0,0.3,0.3,0.6,0.6,0.6h4.4c0.4,0,0.8-0.2,1-0.6l0,0
	l11.4-22L37.3,30c0.1,0.3,0.3,0.5,0.5,0.7l3.2,1.4l0,0c0.3,0.1,0.6,0.1,0.9,0l4.5-2.6C46.6,29.4,46.7,29.1,46.6,28.7"/>
<path class="st0" d="M137.9,16.4c-1.1-0.7-2.4-1-3.8-1c-1.4,0.1-2.8,0.4-4.1,0.9c-0.6,0.2-1.2,0.3-1.9,0.3h-2.3v17.9h3v-4.7l2.5,1.2
	c0.4,0.2,0.8,0.4,1.2,0.5c0.5,0.1,1,0.2,1.6,0.1c1.4,0,2.7-0.3,3.9-1c2.5-1.5,4-4.1,3.9-7C141.9,20.7,140.4,18,137.9,16.4
	 M138.7,26.5l-4.9,2.8l-4.9-2.8v-5.8l4.9-2.9l4.9,2.9V26.5z"/>
<path class="st0" d="M103.9,23.3c0-2.6-0.4-4.1-1.4-5.3c-1.3-1.7-3.4-2.6-5.5-2.6c-0.6,0-1.2,0-1.7,0.2c-0.4,0.1-0.8,0.3-1.1,0.4
	L91,17.8c0,0-0.1-0.1-0.2-0.2c-1.3-1.4-3.2-2.2-5.1-2.1c-1,0-2,0.2-2.9,0.6c-0.4,0.2-0.9,0.4-1.4,0.5c-1.1,0.1-2.1,0.1-3.2,0.1v14.7
	h3v-11l4.1-2.4l4.1,2.4v11h3.1v-11l4.1-2.4l4.1,2.4v11h3.1L103.9,23.3z"/>
<path class="st0" d="M176.4,15.8h-3.1v10.9l-4.3,2.5l-4.2-2.5V15.8h-3.1v7.6c0,2.6,0.5,4.2,1.5,5.5c1.3,1.7,3.4,2.7,5.6,2.7h0.5
	c2.2,0,4.3-1,5.6-2.7c1-1.2,1.5-2.8,1.5-5.5L176.4,15.8z"/>
<path class="st0" d="M158.5,18.6v-2.8H154l-2.5,4.3c-0.2,0.2-0.5,0.3-0.7,0.1c-0.1,0-0.1-0.1-0.1-0.2l0,0l-2.5-4.2h-4.4v2.8h2.6
	l2.6,4.5l-2.8,4.9h-2.4v3.2h3.9l2.9-5.1c0.1-0.1,0.3-0.2,0.4-0.2c0.2,0,0.3,0.1,0.4,0.2l0,0l3.7,5.1h3.2V28h-1.8l-3.6-4.9l2.6-4.5
	L158.5,18.6z"/>
<path class="st0" d="M120.2,16.6c-0.6,0-1.3-0.1-1.8-0.3c-1.3-0.5-2.7-0.8-4.1-0.9c-1.3,0-2.6,0.3-3.8,1c-2.5,1.5-4,4.2-4,7.1
	c0,2.9,1.5,5.5,3.9,7c1.2,0.7,2.5,1,3.9,1c0.5,0,1,0,1.6-0.1c0.4-0.1,0.8-0.2,1.2-0.5l2.4-1.2v1.4h3V16.6H120.2 M119.5,26.4
	l-4.9,2.8l-4.9-2.8v-5.7l4.9-2.9l4.9,2.9V26.4z"/>
<path class="st0" d="M187.7,22.2h-5.3l-1.1-1.9l1.1-1.9h5c0.6,0,1.1,0.3,1.4,0.8c0.1,0.1,0.1,0.3,0.1,0.4l2.8-0.2
	c-0.4-2.2-2.4-3.8-4.6-3.8h-3.6c-2.6,0-4.7,2.1-4.7,4.7c0,2.6,2.1,4.7,4.7,4.7h5.1l1.1,1.9l-1.1,1.9h-5.5c-0.6,0-1.1-0.3-1.3-0.8
	c-0.1-0.3-0.2-0.6-0.2-0.9l-2.8,0.1c0.2,2.4,2.2,4.3,4.6,4.3h4.3c2.6,0.1,4.8-1.9,4.9-4.5c0.1-2.6-1.9-4.8-4.4-4.9
	C188,22.2,187.8,22.2,187.7,22.2"/>
</svg>
